<svg width="128" height="128" viewBox="0 0 128 128" fill="none" xmlns="http://www.w3.org/2000/svg">
<rect width="128" height="128" fill="#C8E1FF"/>
<path d="M57.6038 59.1215V36.5C57.6038 34.8431 56.2607 33.5 54.6038 33.5H46.5C44.8431 33.5 43.5 34.8431 43.5 36.5V91.5C43.5 93.1569 44.8431 94.5 46.5 94.5H54.6038C56.2607 94.5 57.6038 93.1569 57.6038 91.5V78.6814C57.6038 78.6807 57.6038 78.6803 57.6037 78.68C57.6035 78.679 57.6034 78.6789 57.6069 78.6733C57.6149 78.6603 57.641 78.6266 57.6996 78.5905C57.8317 78.509 57.9961 78.4926 58.1107 78.529C59.5523 78.9868 61.1163 79.2063 62.7892 79.2063C65.6196 79.2063 68.1552 78.5121 70.3395 77.0847C70.7281 77.8648 71.5332 78.3932 72.453 78.3932H80.5C82.1569 78.3932 83.5 77.05 83.5 75.3932V36.5C83.5 34.8431 82.1569 33.5 80.5 33.5H72.3962C70.7393 33.5 69.3962 34.8431 69.3962 36.5V64.1495C68.2657 66.0336 66.2867 67.1075 63.0197 67.1075C60.7867 67.1075 59.5588 66.4534 58.8836 65.4832C58.1075 64.3013 57.6038 62.263 57.6038 59.1215Z" fill="white" stroke="#C7CEEA" stroke-width="3"/>
</svg>
